<mxfile>
    <diagram id="L78gExL1mp1nRFLSWg30" name="Page-1">
        <mxGraphModel dx="990" dy="585" grid="1" gridSize="10" guides="1" tooltips="1" connect="1" arrows="1" fold="1" page="1" pageScale="1" pageWidth="1100" pageHeight="850" math="0" shadow="0">
            <root>
                <mxCell id="0"/>
                <mxCell id="1" parent="0"/>
                <mxCell id="6" value="&lt;u&gt;username&lt;/u&gt;" style="whiteSpace=wrap;html=1;align=center;" parent="1" vertex="1">
                    <mxGeometry x="20" y="140" width="100" height="40" as="geometry"/>
                </mxCell>
                <mxCell id="7" value="firstName" style="whiteSpace=wrap;html=1;align=center;" parent="1" vertex="1">
                    <mxGeometry x="120" y="140" width="100" height="40" as="geometry"/>
                </mxCell>
                <mxCell id="8" value="secondName" style="whiteSpace=wrap;html=1;align=center;" parent="1" vertex="1">
                    <mxGeometry x="220" y="140" width="100" height="40" as="geometry"/>
                </mxCell>
                <mxCell id="9" value="email" style="whiteSpace=wrap;html=1;align=center;" parent="1" vertex="1">
                    <mxGeometry x="320" y="140" width="100" height="40" as="geometry"/>
                </mxCell>
                <mxCell id="10" value="password" style="whiteSpace=wrap;html=1;align=center;" parent="1" vertex="1">
                    <mxGeometry x="420" y="140" width="100" height="40" as="geometry"/>
                </mxCell>
                <mxCell id="12" value="priority" style="whiteSpace=wrap;html=1;align=center;" parent="1" vertex="1">
                    <mxGeometry x="520" y="230" width="100" height="40" as="geometry"/>
                </mxCell>
                <mxCell id="13" value="&lt;u&gt;id&lt;/u&gt;" style="whiteSpace=wrap;html=1;align=center;" parent="1" vertex="1">
                    <mxGeometry x="20" y="230" width="100" height="40" as="geometry"/>
                </mxCell>
                <mxCell id="14" value="title" style="whiteSpace=wrap;html=1;align=center;" parent="1" vertex="1">
                    <mxGeometry x="120" y="230" width="100" height="40" as="geometry"/>
                </mxCell>
                <mxCell id="15" value="description" style="whiteSpace=wrap;html=1;align=center;" parent="1" vertex="1">
                    <mxGeometry x="220" y="230" width="100" height="40" as="geometry"/>
                </mxCell>
                <mxCell id="16" value="assigningDate" style="whiteSpace=wrap;html=1;align=center;" parent="1" vertex="1">
                    <mxGeometry x="320" y="230" width="100" height="40" as="geometry"/>
                </mxCell>
                <mxCell id="17" value="endingDate" style="whiteSpace=wrap;html=1;align=center;" parent="1" vertex="1">
                    <mxGeometry x="420" y="230" width="100" height="40" as="geometry"/>
                </mxCell>
                <mxCell id="18" value="employeeUsername" style="whiteSpace=wrap;html=1;align=center;" parent="1" vertex="1">
                    <mxGeometry x="620" y="230" width="120" height="40" as="geometry"/>
                </mxCell>
                <mxCell id="19" value="Employee" style="text;strokeColor=none;fillColor=none;spacingLeft=4;spacingRight=4;overflow=hidden;rotatable=0;points=[[0,0.5],[1,0.5]];portConstraint=eastwest;fontSize=12;" parent="1" vertex="1">
                    <mxGeometry x="20" y="100" width="70" height="30" as="geometry"/>
                </mxCell>
                <mxCell id="21" value="task" style="text;strokeColor=none;fillColor=none;spacingLeft=4;spacingRight=4;overflow=hidden;rotatable=0;points=[[0,0.5],[1,0.5]];portConstraint=eastwest;fontSize=12;" parent="1" vertex="1">
                    <mxGeometry x="20" y="200" width="40" height="30" as="geometry"/>
                </mxCell>
                <mxCell id="22" value="" style="endArrow=open;endFill=1;endSize=12;html=1;entryX=0.5;entryY=1;entryDx=0;entryDy=0;edgeStyle=elbowEdgeStyle;elbow=vertical;exitX=0.5;exitY=0;exitDx=0;exitDy=0;" parent="1" source="18" target="6" edge="1">
                    <mxGeometry width="160" relative="1" as="geometry">
                        <mxPoint x="380" y="210" as="sourcePoint"/>
                        <mxPoint x="470" y="350" as="targetPoint"/>
                        <Array as="points">
                            <mxPoint x="380" y="200"/>
                        </Array>
                    </mxGeometry>
                </mxCell>
            </root>
        </mxGraphModel>
    </diagram>
</mxfile>